<svg xmlns="http://www.w3.org/2000/svg" width="109.892" height="22.424" viewBox="0 0 109.892 22.424">
  <g id="TribeLogo" transform="translate(0 -0.063)">
    <path id="Path_902" data-name="Path 902" d="M25.246,18.279c1.647-.372,3.4-1.319,5.076-1.285v.039c.836.018,1.613,1,1.043,1.748-2.3,2.994-9.1,3.008-12.625,3.281a101.978,101.978,0,0,1-15.632.21c-1.036-.081-1.426-1.671-.262-1.86L16.9,19.36A57.96,57.96,0,0,0,25.246,18.279Z"/>
    <path id="Path_903" data-name="Path 903" d="M24.123,11.063c1.651-.421,3.412-1.453,5.1-1.418l-.007-.011a1.147,1.147,0,0,1,1.019,1.706c-2.127,3.1-9.33,3.317-12.79,3.615a80.333,80.333,0,0,1-15.988.175.842.842,0,1,1,0-1.685l15.045-1.141A56.788,56.788,0,0,0,24.123,11.063Z"/>
    <path id="Path_904" data-name="Path 904" d="M24.272,4c1.547-.386,3.022-1.263,4.593-1.439l-.007,0c1.036-.112,1.388,1.067,1.064,1.783-1.464,3.208-9.6,3.369-12.556,3.72L1.129,9.708C-.287,9.806-.349,7.9.818,7.479,5.376,5.844,10.967,5.949,15.75,5.387A66.971,66.971,0,0,0,24.272,4Z"/>
    <path id="Path_905" data-name="Path 905" d="M46.085,3.177a.208.208,0,0,0-.208-.208h-3.86a.208.208,0,0,0-.208.2L41.789,4.55V9.9l.024,1.4V17.69c0,2.968,1.794,4.8,4.728,4.8a5.312,5.312,0,0,0,2.137-.365.194.194,0,0,0,.113-.18v-3.39a.213.213,0,0,0-.256-.206,4.626,4.626,0,0,1-.884.094c-.94,0-1.566-.33-1.566-1.559V11.512a.208.208,0,0,1,.208-.208H48.64a.208.208,0,0,0,.208-.208V7.525a.208.208,0,0,0-.208-.208H46.293a.208.208,0,0,1-.208-.208Z"/>
    <path id="Path_906" data-name="Path 906" d="M60.06,7.425a.2.2,0,0,0-.148-.193A4.545,4.545,0,0,0,58.9,7.123a4.354,4.354,0,0,0-3.211,1.333c-.147.169-.519.069-.519-.155V7.479a.208.208,0,0,0-.208-.208H51.132a.208.208,0,0,0-.208.208V21.864a.208.208,0,0,0,.208.207h3.979a.208.208,0,0,0,.208-.207V15.61c0-2.948,1.59-4.02,3.354-4.02a6.126,6.126,0,0,1,1.13.094.216.216,0,0,0,.258-.209Z"/>
    <path id="Path_907" data-name="Path 907" d="M66.9,22.072a.208.208,0,0,0,.207-.208V7.458A.208.208,0,0,0,66.9,7.25H62.353a.208.208,0,0,0-.208.208V21.864a.208.208,0,0,0,.208.208ZM61.721,2.717a2.919,2.919,0,0,0,5.814,0,2.919,2.919,0,0,0-5.814,0Z"/>
    <path id="Path_908" data-name="Path 908" d="M73.415,22.158a.207.207,0,0,0,.208-.208v-.729a.27.27,0,0,1,.453-.157,5.183,5.183,0,0,0,3.763,1.422c4.186,0,7.137-3.264,7.137-7.815,0-4.462-2.62-7.756-6.956-7.756a6.019,6.019,0,0,0-3.887,1.268.278.278,0,0,1-.45-.175V.686a.208.208,0,0,0-.207-.208H69.4A.208.208,0,0,0,69.2.686V21.95a.208.208,0,0,0,.208.208ZM80.4,14.7c0,2.485-1.6,3.713-3.373,3.713a3.389,3.389,0,0,1-3.4-3.713,3.331,3.331,0,0,1,3.4-3.683C78.8,11.019,80.4,12.187,80.4,14.7Z"/>
    <path id="Path_909" data-name="Path 909" d="M91.82,12.815a.193.193,0,0,1-.2-.223A2.859,2.859,0,0,1,94.572,10.3a2.685,2.685,0,0,1,2.988,2.3.2.2,0,0,1-.2.218ZM98.1,16.731a.217.217,0,0,0-.257.128A2.89,2.89,0,0,1,94.9,18.624a3.265,3.265,0,0,1-3.379-2.656.2.2,0,0,1,.2-.218h10.039a.169.169,0,0,0,.174-.147,12.385,12.385,0,0,0,.066-1.26c0-4.791-2.858-7.635-7.49-7.635a7.523,7.523,0,0,0-7.46,7.845,7.6,7.6,0,0,0,7.79,7.935c3.692,0,6.042-2.046,6.829-4.533a.2.2,0,0,0-.141-.255Z"/>
    <path id="Path_910" data-name="Path 910" d="M104.078,19.358a2.913,2.913,0,1,0,2.893-3.1A3.014,3.014,0,0,0,104.078,19.358Z"/>
  </g>
</svg>
